<svg xmlns="http://www.w3.org/2000/svg" width="35" height="35" viewBox="0 0 35 35"><path d="M1189.5 240a17.5 17.5 0 1 1 17.5-17.5 17.5 17.5 0 0 1-17.5 17.5Zm7.28-22.216a3.645 3.645 0 0 0 1.6-2.017 7.253 7.253 0 0 1-2.31.884 3.65 3.65 0 0 0-6.22 3.327 10.339 10.339 0 0 1-7.51-3.81 3.649 3.649 0 0 0 1.12 4.869 3.665 3.665 0 0 1-1.65-.458v.047a3.653 3.653 0 0 0 2.93 3.575 3.637 3.637 0 0 1-1.65.063 3.656 3.656 0 0 0 3.41 2.533 7.328 7.328 0 0 1-5.4 1.511 10.368 10.368 0 0 0 15.96-8.739c0-.158 0-.315-.01-.472a7.145 7.145 0 0 0 1.82-1.887 7.243 7.243 0 0 1-2.09.573Z" style="fill:#333;fill-rule:evenodd" transform="translate(-1172 -205)"/></svg>