<?xml version="1.0" encoding="utf-8"?>
<!-- Generator: Adobe Illustrator 24.2.1, SVG Export Plug-In . SVG Version: 6.00 Build 0)  -->
<svg version="1.1" id="레이어_1" xmlns="http://www.w3.org/2000/svg" xmlns:xlink="http://www.w3.org/1999/xlink" x="0px"
	 y="0px" width="64px" height="64px" viewBox="0 0 64 64" style="enable-background:new 0 0 64 64;" xml:space="preserve">
<style type="text/css">
	.st0{fill:none;}
	.st1{fill:#333333;}
</style>
<path class="st0" d="M34.3020821,35.8776665c-0.0363808,0-1.4721642,0-3.3813457,0
	c-0.0686932,0.1892357-0.1563549,0.3758583-0.2814121,0.5491409l-1.9538269,2.4167099l2.508791,7.9071274
	c0.1109676,0.2196693,0.1109676,0.3294716,0,0.5491409l-2.9968243,6.5897102
	c-0.2220001,0.3294716-0.7769661,0.3294716-0.9989662-0.1098022l-2.8857918-6.5897102
	c-0.1110344-0.2196693-0.1110344-0.3294716,0-0.5491409l2.3838711-7.4260254
	c-0.0163269-0.017765-0.0371914-0.0235291-0.0530434-0.0422974l-2.219862-2.7457123
	c-0.1391468-0.1651726-0.2430687-0.3511925-0.312439-0.5491409c-1.7494411,0-3.0173531,0-3.0173531,0
	c-6.3266172,0-11.4322701,4.5029373-11.4322701,9.8845596v9.1157532c0,0.4392738,0.3329659,0.8786125,0.8879309,0.8786125
	h34.2968788c0.4439316,0,0.8879318-0.3294716,0.8879318-0.8786125v-9.1157532
	C45.7343521,40.2708054,40.6287003,35.8776665,34.3020821,35.8776665z"/>
<ellipse class="st0" cx="27.642498" cy="20.5016785" rx="8.8794441" ry="8.7862778"/>
<path class="st1" d="M27.642498,31.5016441c6.1111145,0,10.9999657-4.8888512,10.9999657-10.9999657
	S33.7536125,9.5016451,27.642498,9.5016451S16.6424637,14.390564,16.6424637,20.5016785S21.5313835,31.5016441,27.642498,31.5016441
	z M27.642498,11.6127844c4.8888512,0,8.8888931,3.9999752,8.8888931,8.8888941c0,4.8888512-4.000042,8.888895-8.8888931,8.888895
	c-4.8889198,0-8.888895-4.0000439-8.888895-8.888895C18.753603,15.6127596,22.7535782,11.6127844,27.642498,11.6127844z"/>
<path class="st1" d="M34.2728271,33.8720284H21.234169c-7.4033251,0-13.4806709,5.2844467-13.4806709,12v9.1375809
	c0,1.6513748,1.3259797,2.8624191,2.8729005,2.8624191H44.659523c1.6574554,0,2.9834366-1.3211098,3.0939751-2.8624191v-9.1375809
	C47.7534981,39.2665405,41.6761513,33.8720284,34.2728271,33.8720284z M45.6540222,54.8995438
	c0,0.5504608-0.4420128,0.880722-0.8839607,0.880722H10.6263981c-0.5524864,0-0.8839645-0.4403954-0.8839645-0.880722v-9.1375771
	c0-5.3945122,5.0828447-9.9082375,11.3811989-9.9082375c0,0,1.2622471,0,3.0038719,0
	c0.0690613,0.1984253,0.1725178,0.3848915,0.3110428,0.550457l2.2099457,2.7522888
	c0.0157814,0.0188141,0.0365524,0.0245934,0.0528069,0.0424004l-2.3732224,7.4438095
	c-0.1105366,0.2201958-0.1105366,0.3302612,0,0.550457l2.8729,6.6054878
	c0.2210083,0.4403267,0.7734947,0.4403267,0.994503,0.1100655l2.9834366-6.6054878
	c0.1104717-0.2201996,0.1104717-0.3302612,0-0.5504608l-2.4975834-7.9260635l1.9450989-2.4224968
	c0.1244965-0.1736946,0.2117672-0.3607674,0.2801533-0.550457c1.9006538,0,3.3300247,0,3.3662415,0
	c6.2983513,0,11.3811951,4.4036598,11.3811951,9.9082375V54.8995438z"/>
<path class="st1" d="M55.586235,6.8111057c-0.3663979-0.3393798-1.2213783-0.3393798-1.5877762,0
	c-8.1832352,7.5798073-8.1832352,19.9111404,0,27.4908772c0.3663979,0.3394508,1.0992699,0.3394508,1.4656677,0
	c0.3663979-0.3393784,0.3663979-1.0181389,0-1.3575172c-7.3282585-6.9010487-7.3282585-17.987896,0.1221085-24.7757721
	C55.9526329,7.8293147,55.9526329,7.1504855,55.586235,6.8111057z"/>
<path class="st1" d="M62.8294945,15.6986332c0.3999863-0.3350706,0.3999863-1.0052137,0-1.3402853
	c-0.3999825-0.4468079-1.199955-0.4468079-1.6000214-0.1117363c-4.133316,3.4625864-4.133316,9.0473394,0,12.5098581
	c0.4000664,0.3350716,1.2000389,0.3350716,1.6000214,0c0.3999863-0.3350716,0.3999863-1.0052834,0-1.3403549
	C59.6295319,22.7354755,59.6295319,18.3793411,62.8294945,15.6986332z"/>
</svg>
