<?xml version="1.0" encoding="utf-8"?>
<!-- Generator: Adobe Illustrator 25.4.1, SVG Export Plug-In . SVG Version: 6.00 Build 0)  -->
<svg version="1.1" id="레이어_1" xmlns="http://www.w3.org/2000/svg" xmlns:xlink="http://www.w3.org/1999/xlink" x="0px"
	 y="0px" viewBox="0 0 64 64" style="enable-background:new 0 0 64 64;" xml:space="preserve">
<style type="text/css">
	.st0{fill-rule:evenodd;clip-rule:evenodd;fill:#333333;}
	.st1{fill:#333333;}
</style>
<path id="repair-a-product-l" class="st0" d="M49,60c-6.1,0-11-4.9-11-11s4.9-11,11-11s11,4.9,11,11S55.1,60,49,60L49,60z M49,40
	c-5,0-9,4-9,9s4,9,9,9s9-4,9-9S54,40,49,40L49,40z M24,29c-1.7,0-3-1.3-3-3s1.3-3,3-3h10c1.7,0,3,1.3,3,3s-1.3,3-3,3l0,0H24z M35,26
	c0-0.6-0.4-1-1-1H24c-0.6,0-1,0.4-1,1s0.4,1,1,1h10C34.6,27,35,26.6,35,26z M52,19H6v33h30l1,2H5c-0.6,0-1-0.4-1-1V18
	c0-0.6,0.4-1,1-1H4l8-12c0-0.6,0.4-1,1-1h31c0.6,0,1,0.4,1,1l9,12h-1c0.6,0,1,0.4,1,1v19l-2-1V19z M28,6H14L7,17h21V6z M43,6H30v11
	h21L43,6z"/>
<path class="st1" d="M53.3,47.9h-3.1v-3.1c0-0.6-0.5-1.1-1.1-1.1s-1.1,0.5-1.1,1.1v3.1h-3.1c-0.6,0-1.1,0.5-1.1,1.1s0.5,1.1,1.1,1.1
	h3.1v3.1c0,0.6,0.5,1.1,1.1,1.1s1.1-0.5,1.1-1.1v-3.1h3.1c0.6,0,1.1-0.5,1.1-1.1S53.9,47.9,53.3,47.9z"/>
</svg>
