<svg xmlns="http://www.w3.org/2000/svg" width="20" height="20" viewBox="0 0 20 20"><path fill="#333" fill-rule="evenodd" d="M9.5-.006c-5.239 0-9.5 4.262-9.5 9.5s4.261 9.501 9.5 9.501S19 14.732 19 9.494c0-5.238-4.261-9.5-9.5-9.5Zm0 1.583c1.558 0 3.006.464 4.23 1.239l-.643.074.148 1.583-.841-.372-.692.594.123 1.633 1.707-.545 2.128.693-.544.991-1.287-.793-1.385.199-1.361 1.014-.767 2.375 1.534 1.261s1.574-.271 1.658-.271c.083 0 .668 1.434.668 1.434l-1.262 3.957a7.888 7.888 0 0 1-3.414.769c-.251 0-.498-.029-.742-.051l-.866-1.509.841-3.166-3.191-2.4H2.597l-.766-1.558 2.127-1.683 3.167-1.508-.47-2.104 1.36-.297.644.892 2.375-.446-.421-1.831-1.756-.124c.21-.015.426-.05.643-.05Zm-.891.05-1.237.521-.593-.101a7.915 7.915 0 0 1 1.83-.42Zm-6.976 8.486.767.89v1.634l1.484 1.633h.915l2.252 2.77c-2.988-.969-5.168-3.674-5.418-6.927Z"/></svg>