<svg xmlns="http://www.w3.org/2000/svg" width="35" height="35" viewBox="0 0 35 35"><path d="M1377.5 205a17.5 17.5 0 1 1-17.5 17.5 17.5 17.5 0 0 1 17.5-17.5Zm9.11 13.034a2.323 2.323 0 0 0-1.68-1.64 71.334 71.334 0 0 0-14.86 0 2.354 2.354 0 0 0-1.69 1.64 25.766 25.766 0 0 0 0 8.932 2.357 2.357 0 0 0 1.69 1.641 71.518 71.518 0 0 0 14.86 0 2.343 2.343 0 0 0 1.68-1.641 25.131 25.131 0 0 0 0-8.933Zm-10.62 6.958v-4.984l5.01 2.492Z" style="fill:#333;fill-rule:evenodd" transform="translate(-1360 -205)"/></svg>