<svg xmlns="http://www.w3.org/2000/svg" width="20" height="20" viewBox="0 0 20 20"><path d="M1408.96 5815.54a4.77 4.77 0 1 1 4.78-4.77 4.786 4.786 0 0 1-4.78 4.77Zm0-8.04a3.27 3.27 0 1 0 3.27 3.27 3.28 3.28 0 0 0-3.27-3.27Zm8.18 16.41a.748.748 0 0 1-.73-.56c-.76-2.81-3.89-4.84-7.43-4.84s-6.68 2.03-7.44 4.84a.738.738 0 0 1-.92.53.751.751 0 0 1-.53-.92c.95-3.51 4.6-5.96 8.89-5.96s7.93 2.45 8.88 5.96a.751.751 0 0 1-.53.92.628.628 0 0 1-.19.03Z" style="fill:#1a1a1a;fill-rule:evenodd" transform="translate(-1398.97 -5804.955)"/></svg>