<svg xmlns="http://www.w3.org/2000/svg" width="18" height="18" viewBox="0 0 18 18"><path fill="#1A1A1A" fill-rule="evenodd" d="M9 18A9 9 0 1 1 9 0a9 9 0 0 1 0 18Zm6.568-4.992a33.3 33.3 0 0 0-2.904-.432c-.297 1.531-.772 2.848-1.374 3.796 1.805-.562 3.309-1.783 4.278-3.364ZM9 16.716c.64 0 1.697-1.596 2.234-4.261A33.816 33.816 0 0 0 9 12.374c-.793 0-1.534.03-2.236.071C7.3 15.116 8.359 16.716 9 16.716ZM11.572 9c0-.738-.053-1.417-.126-2.067-.761.042-1.572.072-2.446.072-.873 0-1.685-.03-2.446-.072-.073.65-.126 1.329-.126 2.067 0 .743.053 1.426.128 2.079C7.316 11.033 8.127 11 9 11s1.684.033 2.444.079c.075-.653.128-1.336.128-2.079Zm-4.863 7.372c-.605-.954-1.082-2.279-1.378-3.821a37.301 37.301 0 0 0-2.944.385c.967 1.617 2.491 2.865 4.322 3.436ZM1.281 9c0 .933.178 1.823.483 2.652a36.087 36.087 0 0 1 3.356-.464 19.795 19.795 0 0 1-.002-4.354c-1.895-.163-3.145-.384-3.38-.425A7.68 7.68 0 0 0 1.281 9Zm1.073-3.884c.553.089 1.598.237 2.973.353.296-1.551.775-2.883 1.382-3.841-1.852.577-3.391 1.845-4.355 3.488ZM9 1.284c-.642 0-1.704 1.603-2.239 4.281.704.037 1.445.064 2.239.064.795 0 1.536-.027 2.239-.064C10.704 2.887 9.642 1.284 9 1.284Zm2.291.344c.607.958 1.086 2.29 1.382 3.842a40.681 40.681 0 0 0 2.973-.354c-.964-1.643-2.503-2.911-4.355-3.488Zm1.591 5.206a19.921 19.921 0 0 1-.002 4.354c1.838.175 3.066.409 3.356.463A7.649 7.649 0 0 0 16.719 9a7.68 7.68 0 0 0-.457-2.591c-.236.041-1.486.262-3.38.425Z"/></svg>